<?xml version="1.0" standalone="no"?>
<!DOCTYPE svg PUBLIC "-//W3C//DTD SVG 20010904//EN"
 "http://www.w3.org/TR/2001/REC-SVG-20010904/DTD/svg10.dtd">
<svg version="1.0" xmlns="http://www.w3.org/2000/svg"
 width="736.000000pt" height="736.000000pt" viewBox="0 0 736.000000 736.000000"
 preserveAspectRatio="xMidYMid meet">
<metadata>
Created by potrace 1.14, written by Peter Selinger 2001-2017
</metadata>
<g transform="translate(0.000000,736.000000) scale(0.100000,-0.100000)"
fill="#000000" stroke="none">
<path d="M893 7298 c-89 -92 -198 -271 -317 -520 -124 -259 -144 -353 -126
-591 15 -203 35 -329 81 -517 25 -101 38 -175 35 -193 -22 -111 -285 -610
-487 -925 l-79 -123 2 -240 3 -240 76 103 c222 298 333 501 423 769 24 72 46
127 49 122 3 -5 11 -56 17 -113 20 -171 28 -205 66 -257 19 -26 67 -102 105
-168 39 -66 83 -133 97 -148 15 -16 87 -70 160 -120 183 -124 212 -152 219
-204 5 -36 2 -44 -13 -49 -11 -4 -54 -42 -96 -86 -89 -90 -133 -171 -192 -357
-36 -109 -40 -116 -100 -175 -116 -113 -154 -208 -220 -551 -58 -300 -72 -358
-96 -405 -23 -45 -114 -159 -200 -250 -85 -90 -218 -258 -263 -332 l-37 -62 0
-283 0 -284 25 18 c20 15 44 75 131 343 58 179 128 394 156 478 45 138 55 160
107 225 31 40 63 81 70 92 10 17 11 16 5 -15 -6 -37 -147 -611 -158 -645 -3
-11 0 -5 9 12 12 27 112 418 160 627 7 33 25 93 38 132 14 39 39 156 56 260
38 225 73 380 103 443 l21 46 9 -45 c51 -264 90 -394 171 -582 26 -59 47 -120
48 -135 0 -24 2 -25 8 -8 7 18 9 17 26 -10 101 -168 184 -260 304 -339 97 -64
173 -95 262 -104 l73 -7 -68 -67 c-74 -73 -76 -80 -126 -318 -12 -58 -50 -190
-85 -295 -35 -104 -66 -199 -69 -210 -24 -77 55 116 90 220 37 111 44 124 44
88 0 -125 -62 -397 -119 -519 -53 -112 -110 -194 -211 -298 -242 -252 -540
-418 -750 -419 -95 -1 -146 25 -197 100 -44 64 -97 164 -119 223 l-13 35 0
-32 c-2 -65 93 -232 164 -291 83 -68 222 -70 383 -5 37 15 77 26 89 25 13 -1
80 -29 150 -62 l127 -60 264 2 264 3 -213 64 c-118 36 -268 79 -334 96 -66 18
-120 34 -120 37 0 2 41 35 90 73 206 156 337 288 400 400 45 80 68 141 114
301 42 142 55 164 168 291 78 87 153 107 212 57 72 -61 340 -451 362 -527 6
-21 -2 -59 -32 -155 -54 -175 -53 -201 16 -347 61 -129 105 -246 105 -276 0
-29 32 -24 65 11 18 19 28 39 27 57 -1 32 -20 88 -28 81 -2 -3 0 -17 6 -32 17
-45 12 -73 -17 -94 l-27 -20 -37 97 c-20 53 -57 140 -83 194 -65 138 -65 148
-16 302 22 72 43 137 46 145 4 11 9 8 20 -12 8 -16 17 -28 20 -28 8 0 -72 144
-131 235 -29 44 -67 105 -86 135 -19 30 -71 101 -117 158 -75 93 -80 102 -58
102 14 0 28 4 31 10 6 9 -90 7 -183 -5 -30 -4 -32 -2 -20 13 7 9 -23 -21 -67
-67 -44 -46 -93 -102 -109 -123 -15 -21 -30 -38 -31 -36 -2 2 4 41 11 88 8 47
17 132 20 190 3 63 17 151 34 219 32 129 34 131 203 276 100 85 184 195 212
275 11 31 41 70 99 130 122 125 133 151 148 361 18 259 -2 552 -62 913 -11 66
-19 120 -18 122 5 4 146 -105 280 -215 153 -125 172 -140 194 -148 11 -3 -17
23 -61 59 -44 36 -118 97 -165 136 -47 39 -191 155 -321 259 l-237 188 -8 90
c-5 64 -9 81 -14 60 -6 -29 -6 -29 -14 -7 -4 13 -10 22 -12 19 -2 -2 3 -23 11
-47 13 -36 14 -84 10 -284 -3 -133 -9 -281 -14 -331 -5 -49 -17 -168 -27 -264
l-18 -174 -82 85 c-100 105 -215 249 -301 377 l-65 96 9 95 c4 52 7 135 6 184
-3 108 8 96 -198 240 -208 145 -208 146 -270 259 -30 56 -70 125 -89 152 -20
28 -42 64 -50 80 -31 65 -70 505 -47 528 14 14 40 -8 57 -48 15 -35 16 -33 14
100 0 65 7 129 28 226 37 174 41 180 82 137 l20 -22 -1 50 c-1 35 -3 42 -8 24
-5 -20 -12 -25 -36 -25 -28 0 -31 -4 -47 -55 -9 -30 -23 -84 -31 -120 -14 -65
-14 -65 -26 -35 -53 127 -135 491 -156 695 -25 228 -17 371 27 495 35 99 129
291 223 455 105 184 123 212 136 204 10 -6 8 -27 -16 -149 -8 -38 -39 -207
-70 -375 -31 -168 -67 -365 -80 -438 -31 -168 -31 -172 -1 -172 18 0 38 15 68
51 24 28 73 86 110 128 37 43 97 114 135 158 140 166 403 473 536 628 224 259
233 269 241 283 5 9 -17 12 -101 12 l-108 -1 -81 -97 c-45 -53 -135 -160 -200
-237 -65 -77 -187 -223 -273 -325 -85 -102 -158 -187 -164 -189 -5 -2 -7 9 -3
25 3 16 26 148 51 294 50 288 83 472 90 508 4 18 1 22 -18 22 -15 0 -44 -22
-84 -62z m916 -3375 c2 -2 -9 -3 -26 -3 -19 0 -33 6 -37 16 -11 29 6 36 33 12
14 -13 28 -24 30 -25z m-612 -114 c-53 -41 -39 -122 46 -263 113 -186 251
-350 427 -508 196 -176 258 -211 300 -173 12 11 20 31 20 50 0 40 -54 234 -79
283 -10 20 -33 73 -50 117 -33 82 -80 171 -113 214 -10 13 -18 35 -18 49 0 23
2 22 30 -17 133 -183 252 -444 279 -609 17 -104 -7 -161 -125 -309 -30 -38
-54 -75 -54 -83 0 -12 2 -12 9 -2 16 25 21 -16 21 -161 0 -175 -13 -218 -85
-293 -65 -66 -131 -85 -222 -64 -166 37 -353 175 -498 369 -85 113 -113 167
-131 253 -8 40 -19 75 -23 78 -18 12 -92 323 -107 451 l-6 57 53 40 c30 23 67
51 82 63 36 27 58 72 96 194 57 184 84 246 126 289 37 39 39 40 43 18 2 -15
-5 -29 -21 -43z m-118 -90 c-8 -5 -10 -9 -5 -9 5 0 4 -6 -1 -12 -6 -7 -13 -25
-17 -40 -3 -15 -10 -37 -15 -50 -5 -13 -9 -27 -9 -32 0 -5 -4 -12 -9 -15 -12
-9 -33 -73 -34 -107 -1 -29 -1 -29 -9 -4 l-8 25 -1 -25 c-1 -20 -3 -22 -11
-10 -7 10 -10 11 -10 2 0 -7 7 -15 15 -18 14 -6 13 -8 -2 -21 -10 -8 -12 -11
-4 -7 9 5 12 3 7 -4 -4 -7 -14 -12 -22 -12 -8 0 -12 -4 -9 -10 3 -5 1 -10 -5
-10 -15 0 -6 40 20 94 11 22 17 43 14 48 -9 15 37 99 49 91 9 -5 9 -3 1 8 -8
10 -7 20 1 37 9 17 14 20 19 10 3 -8 5 -5 5 7 -2 36 1 46 11 40 6 -3 10 2 10
12 0 24 23 49 29 32 2 -6 -3 -15 -10 -20z"/>
<path d="M972 3160 c0 -14 2 -19 5 -12 2 6 2 18 0 25 -3 6 -5 1 -5 -13z"/>
<path d="M942 2910 c0 -19 2 -27 5 -17 2 9 2 25 0 35 -3 9 -5 1 -5 -18z"/>
<path d="M1130 2771 c0 -6 4 -13 10 -16 6 -3 7 1 4 9 -7 18 -14 21 -14 7z"/>
<path d="M1172 2703 c42 -77 202 -287 273 -359 74 -74 107 -90 149 -74 35 13
33 17 -9 12 -27 -3 -45 2 -75 23 -44 30 -138 135 -121 135 5 0 13 -5 17 -11
11 -19 126 -67 183 -77 65 -12 55 1 -14 17 -27 7 -75 26 -106 43 -98 52 -159
114 -302 308 -10 14 -8 7 5 -17z"/>
<path d="M1803 2430 c-9 -16 -20 -30 -23 -30 -3 -1 -18 -12 -35 -26 -27 -23
-27 -24 -5 -14 35 18 60 41 76 72 19 38 10 36 -13 -2z"/>
<path d="M990 3559 c0 -5 5 -7 10 -4 6 3 10 8 10 11 0 2 -4 4 -10 4 -5 0 -10
-5 -10 -11z"/>
<path d="M981 3521 c-8 -5 -9 -11 -3 -15 5 -3 12 1 16 9 6 17 6 18 -13 6z"/>
<path d="M1125 7348 c-21 -66 -45 -212 -37 -220 15 -15 31 -2 112 92 40 47 85
97 99 113 l25 27 -97 0 c-69 0 -99 -4 -102 -12z"/>
<path d="M5340 7356 c0 -4 11 -22 24 -39 40 -55 103 -177 150 -295 26 -63 46
-118 46 -123 0 -11 -70 66 -100 111 -74 111 -213 251 -246 250 -5 0 -2 -6 7
-13 45 -35 81 -68 77 -72 -2 -3 -20 0 -40 5 -25 7 -48 27 -79 65 -24 30 -49
55 -55 55 -7 0 8 -21 32 -47 24 -27 44 -52 44 -56 0 -5 11 -23 24 -40 33 -44
120 -216 113 -223 -6 -7 -473 318 -493 342 -14 18 -42 18 -131 -1 -40 -8 -134
-27 -210 -41 -448 -82 -985 -267 -1317 -453 -205 -115 -453 -282 -556 -375
-229 -206 -356 -373 -415 -546 -25 -74 -33 -167 -18 -220 7 -24 8 -24 13 8 5
32 5 32 28 16 23 -16 23 -18 18 -172 -5 -153 -4 -154 5 -47 5 61 12 129 15
152 l5 43 79 -40 79 -40 -18 -67 c-45 -164 -81 -376 -81 -473 0 -48 -3 -61
-11 -50 -41 59 101 -366 194 -580 119 -274 316 -692 343 -728 20 -25 29 -58
44 -157 20 -126 57 -287 84 -360 22 -60 19 -30 -5 45 -22 71 -74 363 -84 476
-5 53 -3 80 9 107 14 35 18 37 60 37 l44 0 63 -102 c34 -57 69 -110 77 -118
17 -18 -29 66 -71 128 -29 43 -29 44 -5 28 37 -24 184 -194 239 -276 26 -40
55 -82 63 -93 27 -36 95 -155 159 -277 64 -123 74 -138 62 -101 -6 21 -5 23
11 16 80 -35 156 -55 173 -45 24 12 34 13 27 1 -11 -18 134 -364 187 -449 22
-34 33 -42 56 -42 25 0 35 -9 64 -58 101 -166 177 -406 206 -652 25 -206 34
-696 22 -1094 l-13 -388 -79 -138 c-43 -76 -79 -141 -79 -144 0 -3 40 -6 89
-6 l88 0 7 142 c4 79 11 147 16 152 29 30 34 -54 14 -241 l-5 -53 75 0 c42 0
76 2 76 4 0 3 -27 70 -61 150 -33 80 -58 154 -55 163 21 67 26 1154 7 1363
-29 315 -88 516 -220 753 -41 75 -42 79 -26 97 11 12 15 28 12 42 -7 26 -132
236 -215 361 -35 52 -46 77 -36 77 22 0 72 36 147 107 l66 62 -29 93 c-16 51
-29 95 -29 98 0 3 22 -38 50 -90 50 -96 57 -90 12 10 -14 30 -39 84 -55 120
-16 35 -37 94 -48 130 -10 36 -23 78 -29 93 -17 43 -13 65 13 82 36 24 66 26
103 9 34 -17 183 -168 183 -186 0 -6 -40 31 -90 82 -49 52 -92 91 -95 88 -3
-3 31 -43 76 -89 45 -46 131 -150 191 -231 102 -136 112 -146 132 -136 12 6
23 14 26 18 14 18 201 160 212 160 6 0 36 -17 65 -37 45 -31 56 -44 68 -87 8
-27 15 -55 15 -62 0 -7 15 -21 33 -33 17 -11 82 -62 142 -111 138 -114 279
-208 390 -262 l86 -41 142 17 c81 9 249 18 390 20 173 3 252 8 262 16 9 7 28
10 47 6 41 -8 80 -65 171 -256 67 -138 135 -240 202 -298 62 -56 52 -26 -16
45 -91 95 -95 102 -204 323 -49 98 -121 210 -136 210 -5 0 -9 5 -9 10 0 6 11
8 24 6 37 -7 128 17 178 47 96 56 221 223 281 377 69 176 108 458 88 645 -20
191 -22 240 -12 230 15 -16 59 -166 107 -365 36 -147 51 -194 78 -235 31 -46
132 -221 169 -290 9 -16 16 -23 17 -14 0 16 -108 209 -177 316 -28 43 -44 83
-57 144 -80 383 -185 656 -296 771 -46 48 -65 59 -118 74 -60 17 -64 20 -93
73 -16 31 -48 103 -71 161 -67 173 -75 188 -110 206 -36 18 -140 45 -147 38
-3 -3 3 -17 12 -32 10 -15 43 -76 74 -137 l55 -109 -5 -101 c-7 -146 -62 -358
-130 -503 -40 -84 -109 -194 -116 -185 -10 11 -59 137 -111 288 -23 66 -60
167 -81 224 -43 114 -46 131 -24 131 8 0 26 5 40 12 34 15 32 36 -11 181 -28
95 -32 122 -22 128 10 7 10 9 -2 9 -10 0 -27 32 -49 93 -38 104 -78 200 -128
302 -18 38 -32 74 -29 81 2 6 27 14 55 17 91 11 95 16 87 116 l-6 86 26 -30
c14 -16 62 -77 107 -134 114 -144 117 -147 117 -138 0 12 -102 148 -187 250
-40 48 -73 97 -73 108 0 99 -124 531 -166 580 -8 8 -14 27 -14 42 l0 26 25
-25 c15 -15 32 -23 41 -20 9 3 22 6 30 6 52 0 -34 219 -170 435 -18 28 -45 86
-60 130 -60 171 -178 410 -220 445 -9 7 -16 9 -16 6z m-734 -158 c-7 -24 -34
-108 -59 -188 -25 -80 -60 -191 -77 -247 -17 -57 -35 -103 -39 -103 -5 0 -19
8 -31 18 -21 17 -21 21 -11 117 16 156 23 372 13 355 -5 -8 -15 -100 -21 -205
-10 -160 -14 -211 -20 -233 -1 -1 -57 43 -126 98 -91 74 -124 106 -121 118 16
53 37 164 34 179 -2 10 -12 -20 -23 -66 -30 -126 -28 -125 -123 -43 l-82 71
63 20 c94 31 329 91 338 86 4 -3 9 -1 11 4 3 9 215 58 260 60 l27 1 -13 -42z
m244 -43 c36 -25 83 -58 105 -73 l40 -28 13 -119 c19 -173 9 -596 -18 -780
-34 -237 -102 -474 -174 -611 -20 -37 -24 -42 -19 -19 4 17 7 40 6 52 0 13 3
20 8 17 5 -3 6 1 4 8 -3 8 6 45 20 82 14 38 24 70 22 73 -3 2 -21 -38 -41 -90
-34 -88 -92 -196 -120 -225 -7 -7 -34 -14 -60 -16 -27 -1 -41 1 -34 6 8 4 -3
8 -29 8 -23 0 -44 -4 -47 -9 -3 -5 -21 -12 -39 -15 -19 -3 -42 -13 -53 -21
-16 -13 -17 -16 -4 -25 10 -6 11 -10 3 -10 -7 0 -13 -5 -13 -11 0 -6 -16 -30
-36 -51 -66 -74 -87 -146 -62 -215 10 -28 9 -38 -6 -66 l-17 -32 21 25 c19 21
21 33 17 72 -7 53 2 60 42 32 17 -13 22 -23 18 -43 -7 -34 8 -63 22 -42 5 7
14 11 20 7 8 -6 33 5 70 30 2 2 -4 10 -13 19 -9 9 -14 21 -11 26 8 12 39 11
52 -2 8 -8 17 -7 34 4 35 25 108 119 120 154 6 18 14 33 17 33 4 0 20 -18 37
-40 16 -23 35 -38 42 -36 44 17 -79 -159 -139 -198 -16 -10 -27 -21 -24 -23 7
-7 46 16 95 55 24 20 42 32 40 26 -3 -5 -53 -106 -111 -224 -130 -263 -164
-303 -323 -380 -114 -56 -373 -145 -517 -180 -118 -28 -163 -23 -244 27 -33
20 -75 45 -94 55 -34 18 -35 18 -51 -3 -11 -15 -21 -19 -30 -13 -31 18 -258
179 -321 227 l-68 51 0 100 c0 56 7 151 15 211 8 61 15 117 15 125 0 8 15 -21
33 -65 18 -44 44 -101 59 -125 25 -42 73 -100 83 -100 2 0 -12 27 -33 59 -20
33 -41 57 -45 54 -5 -3 -6 5 -2 18 4 16 3 20 -3 11 -10 -15 -47 68 -72 161 -7
26 -15 45 -18 43 -7 -7 -41 -274 -42 -331 -1 -27 -5 -58 -9 -69 -10 -25 -52
237 -61 379 -6 101 -7 104 -8 35 -2 -97 21 -280 58 -445 41 -191 90 -328 157
-438 58 -96 30 -75 -35 27 -70 109 -107 180 -156 297 -36 88 -93 280 -106 358
l-8 46 -1 -45 c-2 -69 48 -246 109 -390 27 -62 54 -177 45 -188 -3 -3 -359
292 -392 325 -11 11 -25 22 -31 24 -13 5 -48 229 -40 251 6 15 241 188 426
312 37 26 52 42 52 58 0 29 -11 36 -291 193 -41 24 -107 63 -145 86 l-69 44 8
54 9 54 86 -7 c48 -3 152 -11 232 -16 80 -6 164 -12 188 -14 23 -2 45 -6 49
-10 3 -3 1 -63 -6 -133 -6 -71 -10 -166 -10 -213 2 -80 2 -78 10 40 12 206 28
301 52 321 16 12 21 28 22 63 0 33 4 45 13 41 6 -2 12 0 12 5 0 6 4 10 9 10 5
0 12 -26 16 -57 4 -32 10 -69 15 -83 7 -22 9 -21 10 15 2 57 42 190 58 189 6
-1 26 -2 43 -2 23 -2 30 -6 25 -17 -3 -8 -1 -15 4 -15 6 0 10 -5 10 -11 0 -6
-7 -9 -14 -6 -11 4 -21 -10 -36 -51 -26 -67 -24 -176 4 -229 19 -37 36 -43 36
-12 0 17 5 20 37 17 28 -2 41 -9 50 -28 7 -15 9 -28 3 -36 -15 -18 -4 -21 50
-14 55 7 92 37 64 53 -21 12 -18 47 4 47 10 0 23 -5 29 -11 12 -12 40 33 62
104 7 20 17 37 22 37 5 0 9 8 9 17 0 12 11 7 40 -22 30 -29 39 -46 38 -69 -2
-64 2 -96 12 -96 6 0 10 10 10 23 0 12 4 28 9 36 7 11 10 9 16 -8 8 -26 25
-28 25 -1 0 10 6 25 13 32 11 10 7 21 -22 62 -59 81 -113 136 -166 171 -41 26
-59 47 -88 103 -20 38 -37 77 -37 86 0 9 -5 16 -10 16 -7 0 -9 -19 -5 -52 4
-39 3 -50 -5 -42 -16 16 -27 224 -11 224 6 0 49 -21 96 -46 48 -26 94 -44 107
-42 21 3 24 11 36 108 13 105 75 544 95 673 5 37 13 67 16 67 3 0 48 -34 98
-74 51 -41 101 -79 110 -85 21 -11 16 -32 -65 -306 -60 -205 -106 -420 -122
-572 -13 -113 -9 -174 13 -226 10 -23 12 2 12 145 0 102 5 202 13 243 20 102
16 96 57 82 l35 -12 5 -165 c8 -268 20 -240 20 48 1 201 5 296 18 387 18 118
57 327 63 333 5 6 264 -199 264 -209 0 -52 -60 -355 -101 -509 -49 -185 -133
-392 -164 -402 -11 -4 -34 99 -35 162 -1 35 -3 40 -10 25 -11 -26 -13 -225 -2
-225 5 0 7 26 6 58 l-3 57 14 -54 c7 -30 11 -59 8 -64 -3 -5 0 -8 8 -5 40 13
155 294 207 508 32 128 82 386 82 421 0 25 6 24 42 -6 16 -14 42 -25 56 -25
32 0 19 -32 157 380 58 173 107 321 110 328 4 11 11 9 33 -7 15 -12 56 -42 92
-66z m481 -321 c8 -8 23 -14 32 -14 22 0 24 -4 46 -111 43 -207 79 -585 87
-918 7 -280 -13 -676 -47 -923 -18 -136 -81 -414 -95 -427 -4 -3 -4 5 -1 19
29 121 49 297 54 475 3 123 2 196 -4 190 -5 -5 -22 -53 -38 -105 -44 -144
-109 -308 -191 -480 -41 -85 -67 -146 -58 -135 45 57 211 439 261 600 l18 60
3 -75 c10 -242 -58 -604 -148 -780 -11 -22 -25 -53 -31 -68 -19 -51 9 -8 60
93 162 316 235 773 233 1463 l-1 313 23 9 c13 5 26 16 30 25 24 65 -20 413
-102 790 -10 44 -15 96 -12 115 l5 35 27 -45 c54 -91 126 -267 148 -358 7 -29
14 -51 17 -49 2 3 -3 33 -12 67 -9 34 -14 64 -12 67 19 18 88 -304 74 -341 -4
-9 2 -80 13 -158 69 -525 49 -1023 -60 -1451 -44 -173 -88 -316 -130 -420 -16
-39 -28 -72 -26 -74 5 -5 62 126 70 161 16 65 17 4 7 -238 -12 -267 -17 -316
-33 -316 -8 0 -131 71 -185 108 -9 6 -3 21 23 57 41 57 118 205 110 212 -2 3
-21 -28 -41 -69 -56 -111 -135 -215 -258 -336 -152 -150 -221 -205 -246 -197
-15 4 -18 2 -15 -12 5 -19 4 -20 -254 -215 -78 -59 -146 -108 -150 -108 -4 0
-25 30 -46 67 -79 138 -153 240 -232 321 l-82 82 32 22 c45 32 188 152 210
177 33 37 12 32 -29 -7 -70 -66 -222 -182 -239 -182 -2 0 -20 30 -40 66 l-37
66 24 42 c33 59 130 181 135 168 3 -9 -25 -135 -64 -287 -4 -16 -3 -17 4 -5 6
8 20 55 32 105 21 82 27 95 84 160 108 123 185 274 242 476 25 86 59 159 76
159 15 0 -15 -267 -47 -418 -57 -261 -127 -402 -239 -484 -21 -15 -32 -28 -24
-28 33 0 140 103 207 200 42 61 98 169 126 243 10 26 19 46 21 44 4 -4 -42
-232 -60 -292 -32 -114 -77 -211 -121 -264 -15 -17 -22 -31 -16 -31 5 0 12 4
16 9 3 6 26 20 51 33 26 13 79 57 120 101 41 43 74 75 74 72 0 -26 -100 -204
-138 -246 -30 -34 -39 -48 -24 -40 34 18 80 85 127 186 46 99 90 224 81 232
-3 3 -8 -6 -12 -20 -13 -55 -123 -193 -202 -255 -48 -39 -51 -35 -18 22 35 60
81 205 105 336 12 63 26 134 31 157 6 23 10 59 10 80 -1 33 -6 24 -40 -68 -22
-58 -58 -139 -80 -179 -22 -40 -40 -76 -40 -80 0 -4 -6 -13 -14 -19 -9 -8 -6
9 10 47 54 134 114 464 114 627 0 70 3 81 58 195 32 66 62 117 67 113 4 -4 5
-2 1 4 -4 7 0 23 8 35 15 20 15 19 10 -23 -16 -147 -38 -297 -54 -383 -11 -55
-18 -101 -16 -104 10 -9 71 312 82 432 4 44 11 73 16 70 6 -4 5 3 -1 15 -10
18 -9 21 8 21 10 0 31 -7 47 -15 20 -10 30 -11 35 -3 11 17 -13 38 -29 26 -9
-8 -11 -7 -6 6 8 22 22 20 45 -6 23 -29 25 -108 4 -278 -19 -148 -47 -283 -80
-381 -33 -95 -25 -100 8 -7 33 92 63 215 83 349 17 117 43 435 36 460 -2 9
-16 22 -30 29 l-27 12 30 13 c36 15 55 36 83 90 28 53 28 27 1 -36 -12 -27
-20 -52 -17 -55 18 -18 89 249 87 325 -1 20 -3 27 -5 16 -22 -108 -30 -139
-55 -194 -34 -75 -74 -131 -94 -131 -10 0 -7 19 15 79 66 180 96 421 108 856
9 365 9 593 -1 733 l-9 112 149 -96 c81 -53 155 -103 164 -110z m-1626 129
c-8 -47 -41 -336 -72 -625 -3 -32 -10 -58 -15 -58 -5 0 -34 14 -66 30 -31 17
-120 64 -197 104 -76 40 -141 79 -143 86 -2 6 15 63 38 125 39 103 48 119 110
184 61 63 78 75 176 116 60 26 116 50 124 55 32 19 50 12 45 -17z m-441 -265
c-6 -7 -23 -52 -39 -100 -16 -49 -33 -88 -38 -88 -10 0 -97 45 -120 62 -17 13
-12 17 60 50 43 20 91 50 107 67 28 29 49 36 30 9z m762 -123 c-9 -48 -21
-144 -27 -214 -7 -69 -14 -128 -15 -130 -6 -8 -64 22 -64 33 1 11 33 134 86
324 33 118 42 113 20 -13z m-883 -167 c18 -13 18 -17 2 -93 -9 -44 -20 -142
-24 -218 -5 -78 -13 -143 -19 -149 -8 -8 -13 -8 -16 3 -16 44 -156 554 -156
565 0 6 190 -90 213 -108z m-220 -249 l103 -314 -52 -3 c-53 -3 -434 25 -441
32 -6 6 24 119 64 239 19 60 33 110 31 112 -2 3 -17 -34 -32 -81 -16 -46 -30
-83 -32 -82 -5 5 54 280 67 310 8 20 29 36 73 56 88 40 111 50 114 47 2 -2 49
-144 105 -316z m398 158 c108 -59 133 -76 131 -92 -1 -11 -5 -67 -9 -125 l-6
-105 -106 3 c-58 2 -110 8 -115 12 -4 5 -11 29 -13 54 -3 26 -9 49 -13 51 -4
3 -15 -21 -25 -53 -33 -112 -35 -111 -31 18 4 126 33 310 49 310 2 0 64 -33
138 -73z m-866 -221 c-32 -63 -36 -81 -36 -144 l0 -72 -42 1 c-23 0 -63 4 -89
7 l-47 7 19 42 c26 59 120 198 177 263 l48 54 3 -43 c3 -35 -4 -59 -33 -115z
m108 72 c-4 -18 -13 -40 -21 -48 -34 -33 -62 -114 -62 -177 0 -56 -2 -63 -20
-63 -16 0 -20 7 -21 33 -5 105 16 172 74 242 45 53 59 57 50 13z m2438 -238
c-12 -183 -18 -230 -29 -230 -4 1 -17 9 -30 20 l-23 19 30 118 c16 65 35 157
42 203 19 123 23 72 10 -130z m-2467 64 c-9 -55 -20 -103 -24 -107 -13 -15
-21 61 -10 102 14 53 40 114 46 108 3 -2 -3 -49 -12 -103z m939 -4 c-9 -10
-23 27 -22 60 l1 35 12 -45 c7 -25 11 -47 9 -50z m-283 70 c0 -5 -4 -10 -10
-10 -5 0 -10 5 -10 10 0 6 5 10 10 10 6 0 10 -4 10 -10z m-8 -58 c3 -12 -2
-24 -15 -31 -17 -11 -19 -11 -13 4 3 9 6 26 6 36 0 24 16 17 22 -9z m353 -30
c-9 -9 -25 11 -25 31 1 21 1 21 15 -3 7 -14 12 -27 10 -28z m2249 -82 c8 -36
19 -75 22 -87 5 -17 2 -23 -9 -23 -27 0 -37 27 -42 111 -6 95 4 95 29 -1z
m-2656 2 c5 -31 -15 -27 -21 3 -3 16 0 24 7 22 6 -2 12 -13 14 -25z m42 19 c0
-6 -4 -13 -10 -16 -5 -3 -10 1 -10 9 0 9 5 16 10 16 6 0 10 -4 10 -9z m183
-137 c-17 -13 -17 -14 1 -7 13 4 17 3 12 -5 -4 -7 -3 -12 2 -12 6 0 12 7 16
15 6 16 43 20 62 7 6 -4 17 -20 25 -37 17 -37 41 -39 51 -5 5 17 6 12 3 -15
-3 -29 -13 -48 -36 -69 -28 -25 -38 -28 -77 -23 -77 8 -113 78 -77 148 9 16
20 27 26 23 6 -3 3 -12 -8 -20z m-960 5 c69 -3 91 -24 81 -76 l-6 -30 -89 49
c-49 27 -86 54 -83 59 3 6 13 8 22 5 10 -3 43 -6 75 -7z m3431 -52 c33 -155
33 -157 -3 -157 -59 0 -61 3 -61 111 l0 100 30 -16 c16 -8 32 -25 34 -38z
m-879 -56 c34 -20 33 -18 8 -146 -23 -117 -66 -245 -83 -245 -4 0 -35 26 -69
59 l-62 59 24 28 c32 38 103 173 118 224 13 44 20 47 64 21z m-151 -118 c-4
-16 -10 -30 -13 -33 -3 -3 -7 -12 -9 -20 -1 -8 -12 -34 -24 -57 -18 -36 -24
-41 -39 -32 -17 9 -16 12 14 52 17 23 41 59 52 80 23 44 28 46 19 10z m-2121
-105 c103 -51 187 -95 187 -99 0 -3 -18 -15 -40 -28 -21 -12 -99 -62 -172
-111 -73 -50 -137 -90 -143 -90 -6 0 -9 44 -8 125 1 74 -2 123 -8 120 -5 -4
-9 -41 -10 -83 -2 -130 -12 -196 -30 -200 -14 -3 -16 9 -13 100 7 179 26 358
38 358 6 0 95 -41 199 -92z m-242 -87 c-6 -66 -11 -160 -11 -210 0 -88 -1 -90
-29 -110 -16 -12 -31 -21 -34 -21 -12 0 21 231 55 384 12 55 24 94 26 88 2 -7
-1 -66 -7 -131z m2023 -82 c-2 -4 3 -10 12 -13 12 -5 15 -16 12 -40 -2 -19 0
-32 4 -30 4 3 8 13 8 22 1 14 2 14 12 -3 12 -19 12 -19 20 5 5 17 6 12 2 -15
-12 -88 -99 -120 -155 -57 -31 35 -31 55 1 106 17 28 26 33 54 32 19 0 32 -4
30 -7z m1345 -81 c1 -4 -9 -4 -21 1 -13 5 -23 13 -22 20 1 6 2 23 3 39 2 26 3
26 21 -13 10 -22 19 -43 19 -47z m-889 -41 c0 -5 -13 0 -30 10 -16 9 -30 21
-30 25 0 4 13 -1 30 -10 16 -9 30 -21 30 -25z m880 18 c24 -12 34 -31 63 -120
l36 -105 -22 -15 c-28 -18 -104 -45 -128 -45 -10 0 -21 5 -24 10 -5 8 5 98 31
258 6 37 6 37 44 17z m-897 -38 c7 2 14 -7 14 -19 1 -13 -1 -18 -5 -12 -4 6
-14 13 -23 16 -9 4 -19 17 -22 30 -6 22 -6 23 9 3 8 -11 21 -19 27 -18z m-50
-27 c3 -11 1 -18 -4 -14 -5 3 -9 12 -9 20 0 20 7 17 13 -6z m37 -10 c0 -5 -4
-10 -10 -10 -5 0 -10 5 -10 10 0 6 5 10 10 10 6 0 10 -4 10 -10z m-64 -25 c15
21 19 8 5 -14 -8 -12 -12 -12 -25 -2 -13 11 -16 11 -16 1 0 -8 -2 -11 -5 -8
-3 3 -2 13 1 23 7 16 7 16 17 -1 9 -16 10 -16 23 1z m1601 -45 c46 -21 48 -24
113 -195 20 -55 53 -132 73 -171 32 -64 39 -71 66 -72 100 -3 204 -99 215
-197 13 -120 28 -496 23 -565 -12 -159 -84 -398 -165 -553 -48 -92 -135 -198
-182 -222 -127 -66 -266 -19 -432 147 -70 70 -90 96 -102 136 -21 72 -38 225
-34 310 l3 74 53 -67 c30 -37 57 -64 60 -60 4 3 2 9 -4 13 -25 17 -169 223
-196 279 -42 88 -51 175 -45 408 6 198 20 331 38 350 6 6 15 3 25 -7 14 -13
14 -27 5 -104 -24 -192 -6 -416 40 -524 64 -148 165 -119 289 83 117 191 189
470 178 694 -5 104 -22 154 -58 173 -11 6 -29 29 -40 50 l-20 40 27 0 c16 0
47 -9 70 -20z m-3909 -164 c16 -124 16 -122 -8 -101 -17 16 -20 31 -20 107 0
48 4 88 8 88 5 0 14 -42 20 -94z m-38 4 c0 -38 -4 -70 -9 -70 -11 0 -26 103
-17 125 14 37 26 11 26 -55z m3451 -32 c28 -111 28 -112 8 -116 -12 -2 -29 22
-62 88 l-45 90 26 15 c15 8 32 14 38 15 7 0 22 -42 35 -92z m-3491 32 c0 -47
-5 -50 -24 -11 -11 21 -12 31 -3 40 20 20 27 12 27 -29z m3423 -67 c20 -43 35
-79 32 -81 -8 -8 -205 22 -205 32 0 5 5 36 12 67 l12 58 45 3 c25 2 51 2 57 0
6 -2 27 -37 47 -79z m-3383 -182 c0 -9 5 -23 10 -31 7 -11 8 -5 5 20 -7 46 10
10 19 -40 5 -27 4 -31 -4 -15 -9 17 -9 15 -5 -9 8 -39 46 -103 94 -158 24 -27
46 -68 61 -113 12 -38 27 -74 33 -80 7 -7 8 -4 2 10 -17 46 -35 122 -34 150 0
24 7 13 33 -50 18 -44 41 -95 50 -114 15 -28 15 -35 4 -42 -20 -13 -26 -11
-33 11 -3 11 -10 20 -15 20 -26 0 -171 254 -224 392 -13 35 -27 72 -32 83 -7
20 -7 20 14 1 12 -11 22 -26 22 -35z m3405 17 c2 -2 -2 -30 -8 -63 -6 -33 -11
-184 -11 -335 -1 -308 1 -321 80 -440 36 -54 37 -58 40 -164 6 -162 29 -299
63 -373 36 -76 89 -134 249 -271 l123 -106 -30 -15 c-23 -12 -71 -17 -206 -19
-204 -3 -186 -10 -355 118 -52 39 -129 88 -170 108 -66 33 -81 37 -140 34 -58
-2 -77 3 -156 37 -224 97 -554 277 -554 302 0 8 135 109 146 109 3 0 15 -10
26 -22 18 -21 19 -21 13 -3 -4 11 -9 27 -12 35 -2 9 16 30 49 55 29 22 102 90
163 151 l111 110 139 -83 c77 -46 146 -83 152 -83 7 0 15 10 17 23 26 121 50
536 44 737 -3 80 -3 151 0 159 4 11 26 13 114 8 61 -3 111 -7 113 -9z m-3333
-45 c9 -10 24 -49 33 -88 10 -38 22 -78 27 -88 5 -10 7 -21 5 -24 -7 -6 -53
74 -70 122 -32 91 -30 117 5 78z m1957 -65 c-11 -35 -27 -83 -36 -108 -21 -56
-114 -243 -119 -238 -7 7 54 182 111 316 18 43 50 92 61 92 1 0 -7 -28 -17
-62z m-1889 13 c0 -4 12 -14 27 -22 47 -25 298 -220 301 -234 2 -8 -7 -20 -20
-28 -121 -72 -150 -89 -152 -86 -16 18 -75 152 -101 233 l-34 101 -2 -65 -1
-65 -22 70 c-13 39 -26 83 -30 98 -6 26 -5 27 14 17 11 -6 20 -14 20 -19z
m1819 -58 c-50 -118 -161 -295 -269 -428 -40 -49 -79 -105 -88 -122 -15 -33
-42 -45 -42 -20 0 21 -81 8 -101 -16 -16 -21 -16 -21 -50 18 -86 97 -120 149
-113 170 16 47 8 83 -24 110 -18 15 -29 32 -25 37 3 7 1 8 -6 4 -6 -4 -18 0
-26 8 -14 14 -13 15 12 14 15 0 44 3 64 7 l36 7 33 -93 c18 -52 35 -89 37 -83
2 5 0 52 -5 103 -4 51 -4 95 0 98 13 7 183 52 186 48 6 -6 -39 -139 -63 -190
-14 -28 -32 -86 -40 -129 -18 -96 -18 -96 0 -96 10 0 15 10 15 28 0 64 32 160
79 237 27 44 59 103 71 132 22 51 22 52 113 87 51 20 121 53 157 75 36 21 66
40 67 40 1 1 -7 -20 -18 -46z m-1425 -69 c3 -8 2 -12 -4 -9 -6 3 -10 10 -10
16 0 14 7 11 14 -7z m276 -161 c80 -50 168 -100 196 -112 43 -19 54 -29 77
-77 15 -30 27 -57 27 -61 0 -18 -52 45 -58 71 -7 28 -24 39 -148 101 -171 86
-259 141 -274 173 -11 24 -10 24 12 10 13 -8 88 -56 168 -105z m825 107 c-3
-5 -12 -10 -18 -10 -7 0 -6 4 3 10 19 12 23 12 15 0z m-15 -23 c0 -2 -9 -21
-21 -43 -11 -21 -18 -31 -15 -21 4 11 9 30 12 43 3 13 10 24 15 24 5 0 9 -1 9
-3z m255 -92 c-28 -76 -30 -89 -12 -79 7 4 9 3 4 -2 -5 -5 -11 -7 -13 -4 -2 3
-22 -25 -44 -62 -23 -37 -44 -70 -49 -73 -5 -2 -7 16 -6 42 3 38 15 64 72 149
37 56 69 101 71 99 1 -1 -9 -33 -23 -70z m-1329 -126 c8 -41 26 -99 40 -129
13 -30 17 -46 8 -35 -22 29 -104 194 -104 210 0 13 31 38 38 31 1 -2 9 -36 18
-77z m314 -110 c117 -65 151 -89 156 -109 4 -14 16 -38 27 -53 10 -16 17 -30
14 -33 -11 -11 -59 44 -65 74 -6 30 -17 39 -119 92 -137 72 -323 191 -323 206
0 7 36 -12 80 -40 44 -29 148 -91 230 -137z m-379 124 c1 -47 23 -176 34 -206
6 -15 4 -16 -16 -9 -22 8 -149 148 -149 164 0 7 109 76 123 77 4 1 7 -11 8
-26z m-133 -75 c16 -16 15 -28 -2 -28 -17 0 -38 24 -29 33 9 10 17 9 31 -5z
m923 -45 c-12 -20 -14 -14 -5 12 4 9 9 14 11 11 3 -2 0 -13 -6 -23z m34 -29
c1 -13 0 -24 -2 -24 -8 0 -23 42 -17 51 9 15 19 1 19 -27z m-35 -45 c0 -14
-17 -10 -23 5 -4 10 -1 13 9 9 7 -3 14 -9 14 -14z m43 -7 c9 -2 17 2 17 8 0 5
5 10 11 10 8 0 7 -5 -1 -15 -7 -9 -19 -14 -27 -11 -7 3 -13 0 -13 -7 0 -8 -4
-6 -10 3 -12 18 -14 40 -2 25 4 -5 15 -11 25 -13z m66 -15 c0 -9 -2 -8 -6 1
-2 6 -10 9 -15 6 -7 -4 -8 -2 -4 5 9 13 26 5 25 -12z m-31 -19 c30 -1 56 -6
59 -11 3 -5 -25 -7 -61 -5 -36 2 -66 7 -66 12 0 4 -7 5 -16 2 -9 -3 -12 -2 -9
5 4 5 14 7 23 5 10 -3 41 -7 70 -8z m26 -38 l72 0 22 -45 c12 -25 22 -47 22
-50 0 -5 -161 49 -187 64 -26 13 -41 46 -17 37 8 -3 48 -6 88 -6z m-156 -455
c50 -115 107 -241 127 -279 20 -37 34 -70 31 -73 -12 -13 -256 522 -271 595
-6 26 -6 26 8 -3 8 -16 55 -124 105 -240z m690 68 l33 -48 -40 45 c-23 25 -41
49 -41 53 0 15 15 -1 48 -50z m833 -291 c-6 -2 -8 -9 -5 -15 4 -7 -7 1 -24 17
-18 17 -32 31 -32 33 0 1 16 -5 36 -14 19 -10 31 -19 25 -21z m55 -27 c10 -2
27 -4 37 -4 10 -1 15 -5 12 -11 -3 -6 5 -10 19 -10 14 0 28 -4 31 -10 3 -5 0
-8 -7 -6 -39 12 -68 15 -68 7 0 -9 43 -22 83 -26 24 -2 47 -25 26 -25 -9 0
-19 3 -22 6 -4 4 -21 8 -39 9 -30 3 -31 2 -14 -11 14 -10 23 -11 32 -3 8 7 14
7 19 -1 3 -5 1 -10 -5 -10 -6 0 -8 -4 -5 -10 3 -5 14 -10 23 -10 13 0 14 2 4
9 -10 6 -8 10 9 14 32 9 36 0 10 -22 -13 -12 -18 -22 -11 -26 5 -3 10 -1 10 5
0 7 7 10 14 7 11 -4 13 -1 9 10 -4 9 -2 14 3 10 5 -3 10 3 10 13 0 10 -3 17
-7 14 -4 -2 -12 3 -19 11 -11 14 -10 14 16 5 15 -6 40 -8 54 -4 50 13 75 12
92 -3 10 -9 15 -19 13 -24 -3 -4 -1 -10 4 -14 6 -3 8 3 6 14 -3 18 -1 19 21 9
18 -9 21 -14 12 -20 -9 -6 -6 -7 8 -3 25 6 50 -18 38 -37 -6 -10 -4 -10 9 0
14 12 21 11 47 -10 67 -51 84 -67 73 -68 -7 0 -13 5 -13 10 0 6 -5 10 -11 10
-8 0 -7 -5 1 -15 7 -9 20 -13 30 -10 10 3 25 -4 37 -19 l21 -23 -24 0 c-25 0
-32 12 -11 20 6 3 0 4 -16 3 -15 -2 -30 -6 -34 -9 -13 -13 -25 -7 -14 7 8 9 8
16 2 20 -5 4 -13 -3 -16 -15 -6 -17 -14 -20 -51 -18 -24 2 -46 0 -50 -4 -13
-12 -34 -8 -34 7 0 17 -42 28 -92 24 -29 -1 -45 6 -89 42 -30 24 -63 53 -75
64 -12 12 -49 41 -82 66 -34 25 -63 51 -67 58 -7 19 5 38 15 22 4 -6 16 -13
26 -15z m331 -261 c-3 -3 -12 -4 -19 -1 -8 3 -5 6 6 6 11 1 17 -2 13 -5z m163
-24 c0 -5 -8 -10 -17 -10 -15 0 -16 2 -3 10 19 12 20 12 20 0z m83 -27 c-7 -2
-19 -2 -25 0 -7 3 -2 5 12 5 14 0 19 -2 13 -5z"/>
<path d="M4351 5982 c-36 -105 -113 -258 -169 -335 -19 -26 -32 -50 -30 -52 8
-8 81 105 135 209 29 56 52 97 53 93 0 -5 -11 -51 -25 -103 -26 -99 -31 -125
-13 -84 22 53 94 358 86 365 -2 2 -18 -40 -37 -93z"/>
<path d="M3721 5924 c-1 -24 5 -46 13 -53 13 -11 29 -51 20 -51 -3 0 -8 10
-13 22 -5 13 -10 17 -15 10 -6 -11 53 -87 61 -78 3 3 -7 35 -22 73 -16 37 -31
79 -36 93 -6 21 -7 19 -8 -16z"/>
<path d="M4315 5692 c-33 -65 -53 -132 -39 -132 13 0 92 196 82 205 -2 2 -21
-31 -43 -73z m-22 -77 c-3 -9 -8 -14 -10 -11 -3 3 -2 9 2 15 9 16 15 13 8 -4z"/>
<path d="M4664 5664 c-9 -26 -79 -121 -122 -166 -40 -42 -36 -52 5 -13 33 30
40 26 18 -12 l-17 -28 26 30 c30 34 111 194 102 202 -3 3 -9 -3 -12 -13z"/>
<path d="M4215 5570 c-3 -6 1 -7 9 -4 18 7 21 14 7 14 -6 0 -13 -4 -16 -10z"/>
<path d="M3356 5551 c-4 -7 -5 -15 -2 -18 9 -9 19 4 14 18 -4 11 -6 11 -12 0z"/>
<path d="M3002 5290 c0 -14 2 -19 5 -12 2 6 2 18 0 25 -3 6 -5 1 -5 -13z"/>
<path d="M3053 5235 c0 -22 2 -30 4 -17 2 12 2 30 0 40 -3 9 -5 -1 -4 -23z"/>
<path d="M3012 5235 c0 -16 4 -43 8 -60 11 -42 11 -1 1 50 -7 34 -9 35 -9 10z"/>
<path d="M3062 5150 c0 -14 2 -19 5 -12 2 6 2 18 0 25 -3 6 -5 1 -5 -13z"/>
<path d="M3072 5100 c0 -14 2 -19 5 -12 2 6 2 18 0 25 -3 6 -5 1 -5 -13z"/>
<path d="M4365 5050 c-3 -5 -1 -10 4 -10 6 0 11 5 11 10 0 6 -2 10 -4 10 -3 0
-8 -4 -11 -10z"/>
<path d="M5682 6355 c0 -16 2 -22 5 -12 2 9 2 23 0 30 -3 6 -5 -1 -5 -18z"/>
<path d="M5452 6109 c-11 -303 -71 -612 -151 -791 -23 -50 -37 -65 -25 -25 10
35 -1 17 -29 -46 -24 -52 -24 -56 -7 -47 24 13 89 144 129 260 54 157 95 432
89 605 -2 55 -5 75 -6 44z"/>
<path d="M5062 5650 c0 -14 2 -19 5 -12 2 6 2 18 0 25 -3 6 -5 1 -5 -13z"/>
<path d="M5320 5493 c-22 -69 -104 -214 -138 -244 -18 -16 -28 -29 -21 -29 18
0 66 57 105 124 19 33 32 50 29 36 -17 -65 -17 -67 -4 -47 6 11 11 34 12 53 1
19 5 34 11 34 5 0 7 2 4 6 -3 3 1 26 8 51 8 26 12 48 10 50 -2 3 -9 -13 -16
-34z"/>
<path d="M5172 4875 c0 -16 2 -22 5 -12 2 9 2 23 0 30 -3 6 -5 -1 -5 -18z"/>
<path d="M5161 4809 c0 -15 -3 -42 -6 -60 l-5 -34 11 34 c5 18 8 45 6 60 l-4
26 -2 -26z"/>
<path d="M5142 4680 c0 -14 2 -19 5 -12 2 6 2 18 0 25 -3 6 -5 1 -5 -13z"/>
<path d="M5132 4630 c0 -14 2 -19 5 -12 2 6 2 18 0 25 -3 6 -5 1 -5 -13z"/>
<path d="M5122 4570 c0 -14 2 -19 5 -12 2 6 2 18 0 25 -3 6 -5 1 -5 -13z"/>
<path d="M4825 4349 c-29 -61 -61 -101 -50 -63 3 10 -8 -8 -25 -41 -17 -32
-41 -71 -55 -85 -36 -37 -31 -49 6 -14 52 49 171 246 157 259 -2 3 -17 -22
-33 -56z"/>
<path d="M5082 4367 c-6 -6 -13 -26 -16 -42 -3 -17 -3 -23 0 -15 4 8 13 27 21
43 14 29 12 35 -5 14z"/>
<path d="M5017 4311 c-12 -71 -76 -260 -122 -358 -57 -121 -94 -175 -174 -251
-66 -63 -66 -63 -21 -38 52 29 144 118 168 161 l17 30 6 -40 7 -40 -1 45 c0
30 9 63 27 98 15 30 25 56 23 58 -2 2 -19 -24 -37 -58 -37 -72 -80 -132 -87
-124 -3 3 4 17 15 33 29 41 88 160 116 234 34 90 78 256 74 277 -2 9 -7 -3
-11 -27z m-242 -579 l-48 -47 44 51 c24 29 46 50 49 48 2 -3 -18 -26 -45 -52z"/>
<path d="M5010 4158 c-54 -158 -56 -166 -30 -108 25 53 83 230 78 235 -2 2
-24 -55 -48 -127z"/>
<path d="M4811 4244 c0 -11 3 -14 6 -6 3 7 2 16 -1 19 -3 4 -6 -2 -5 -13z"/>
<path d="M4796 4194 c-4 -14 -5 -28 -3 -31 3 -2 8 8 11 23 4 14 5 28 3 31 -3
2 -8 -8 -11 -23z"/>
<path d="M4785 3832 c-22 -30 -71 -89 -110 -131 -38 -42 -55 -63 -36 -48 19
16 61 61 94 100 32 40 69 84 82 99 13 16 20 30 17 32 -4 2 -25 -21 -47 -52z"/>
<path d="M4870 3715 c0 -5 5 -17 10 -25 5 -8 10 -10 10 -5 0 6 -5 17 -10 25
-5 8 -10 11 -10 5z"/>
<path d="M4890 3664 c0 -6 7 -19 16 -30 14 -18 14 -18 3 6 -14 31 -19 36 -19
24z"/>
<path d="M6584 3689 c-10 -23 -40 -69 -66 -102 -53 -66 -61 -83 -23 -47 30 28
100 136 110 168 10 36 0 26 -21 -19z"/>
<path d="M6576 3569 c-50 -199 -98 -263 -169 -228 -21 10 -21 10 -3 -5 44 -35
93 -12 129 59 20 41 69 214 65 233 -2 8 -11 -19 -22 -59z"/>
<path d="M6436 3505 c-11 -8 -15 -15 -9 -15 6 0 16 7 23 15 16 19 11 19 -14 0z"/>
<path d="M6180 3501 c0 -5 7 -12 16 -15 14 -5 15 -4 4 9 -14 17 -20 19 -20 6z"/>
<path d="M6278 3443 c6 -2 18 -2 25 0 6 3 1 5 -13 5 -14 0 -19 -2 -12 -5z"/>
<path d="M3737 4233 c-11 -10 -8 -20 7 -26 10 -4 12 0 9 14 -6 21 -7 22 -16
12z"/>
<path d="M3791 4104 c0 -11 3 -14 6 -6 3 7 2 16 -1 19 -3 4 -6 -2 -5 -13z"/>
<path d="M4130 4095 c-13 -14 -19 -25 -14 -25 8 1 50 50 41 50 -2 0 -14 -11
-27 -25z"/>
<path d="M3870 4071 c0 -6 5 -13 10 -16 6 -3 10 1 10 9 0 9 -4 16 -10 16 -5 0
-10 -4 -10 -9z"/>
<path d="M4086 4035 c-9 -14 -13 -25 -9 -25 10 0 36 40 30 46 -2 3 -12 -7 -21
-21z"/>
<path d="M3906 3987 c3 -10 9 -15 12 -12 3 3 0 11 -7 18 -10 9 -11 8 -5 -6z"/>
<path d="M4041 3974 c-17 -38 -6 -42 14 -5 8 17 12 31 7 31 -5 0 -14 -12 -21
-26z"/>
<path d="M5271 3124 c0 -11 3 -14 6 -6 3 7 2 16 -1 19 -3 4 -6 -2 -5 -13z"/>
<path d="M5491 3074 c-19 -8 -31 -17 -27 -21 3 -4 12 -1 18 5 7 7 20 12 30 12
10 0 18 5 18 10 0 12 3 12 -39 -6z"/>
<path d="M5495 3050 c-3 -6 1 -7 9 -4 18 7 21 14 7 14 -6 0 -13 -4 -16 -10z"/>
<path d="M5415 3000 c3 -5 11 -10 16 -10 6 0 7 5 4 10 -3 6 -11 10 -16 10 -6
0 -7 -4 -4 -10z"/>
<path d="M5705 2990 c-3 -6 1 -7 9 -4 18 7 21 14 7 14 -6 0 -13 -4 -16 -10z"/>
<path d="M5687 2969 c7 -7 15 -10 18 -7 3 3 -2 9 -12 12 -14 6 -15 5 -6 -5z"/>
<path d="M5490 2940 c13 -10 31 -15 39 -12 14 6 13 7 -2 10 -9 2 -15 7 -13 10
2 4 -8 8 -22 9 l-26 1 24 -18z"/>
<path d="M4911 7309 c-73 -12 -81 -23 -11 -14 30 4 74 8 97 9 23 1 45 5 49 9
10 9 -68 7 -135 -4z"/>
<path d="M5078 7303 c7 -3 16 -2 19 1 4 3 -2 6 -13 5 -11 0 -14 -3 -6 -6z"/>
<path d="M796 5734 c-9 -8 -16 -30 -15 -47 l1 -32 8 35 c5 18 16 40 26 47 10
7 13 13 7 13 -7 0 -19 -7 -27 -16z"/>
<path d="M881 5706 c-9 -11 -10 -20 -2 -33 9 -16 10 -16 11 5 0 28 21 37 50
22 18 -10 21 -9 18 2 -6 19 -62 22 -77 4z"/>
<path d="M981 5659 c-1 -3 22 -53 49 -110 51 -107 59 -102 11 7 -25 57 -59
116 -60 103z"/>
<path d="M1420 5380 c-22 -44 -38 -80 -35 -80 5 0 28 42 62 113 37 78 16 53
-27 -33z"/>
<path d="M922 5395 c0 -33 3 -47 5 -30 3 16 9 32 13 35 5 3 2 16 -5 30 -13 23
-14 21 -13 -35z"/>
<path d="M2221 5404 c0 -11 3 -14 6 -6 3 7 2 16 -1 19 -3 4 -6 -2 -5 -13z"/>
<path d="M1091 5409 c-1 -4 15 -49 35 -100 19 -52 39 -105 43 -119 23 -73 116
-293 129 -306 22 -23 37 -11 38 32 1 24 0 29 -3 12 -9 -58 -33 -29 -94 117
-23 55 -54 136 -69 180 -27 78 -78 196 -79 184z"/>
<path d="M1507 5350 c-4 -36 -14 -87 -22 -114 -14 -46 -22 -246 -10 -234 3 3
7 50 9 104 1 55 11 127 20 161 9 35 16 82 14 105 -3 39 -4 37 -11 -22z"/>
<path d="M2231 5354 c0 -11 3 -14 6 -6 3 7 2 16 -1 19 -3 4 -6 -2 -5 -13z"/>
<path d="M6175 5330 c10 -19 25 -46 34 -59 9 -14 30 -61 48 -105 38 -96 43
-89 9 11 -13 39 -41 95 -61 124 -46 67 -52 73 -30 29z"/>
<path d="M965 5319 c4 -12 15 -49 25 -84 10 -35 23 -72 30 -82 7 -11 10 -12 7
-3 -35 119 -59 190 -63 190 -3 0 -2 -9 1 -21z"/>
<path d="M933 5295 c0 -22 2 -30 4 -17 2 12 2 30 0 40 -3 9 -5 -1 -4 -23z"/>
<path d="M2242 5310 c0 -28 25 -133 26 -110 1 8 -5 42 -12 75 -8 33 -14 49
-14 35z"/>
<path d="M1366 5273 c-6 -14 -5 -15 5 -6 7 7 10 15 7 18 -3 3 -9 -2 -12 -12z"/>
<path d="M943 5215 c0 -22 2 -30 4 -17 2 12 2 30 0 40 -3 9 -5 -1 -4 -23z"/>
<path d="M1334 5216 c-3 -7 -4 -33 -2 -57 3 -43 4 -42 8 14 5 58 4 68 -6 43z"/>
<path d="M2271 5164 c0 -11 3 -14 6 -6 3 7 2 16 -1 19 -3 4 -6 -2 -5 -13z"/>
<path d="M951 5124 c0 -11 3 -14 6 -6 3 7 2 16 -1 19 -3 4 -6 -2 -5 -13z"/>
<path d="M1034 5115 c2 -11 22 -68 43 -127 29 -83 36 -111 27 -125 -18 -29
-30 -25 -49 17 -10 22 -20 38 -22 36 -5 -5 39 -96 47 -96 4 0 16 10 28 23 l21
23 -29 89 c-28 87 -75 201 -66 160z"/>
<path d="M991 5015 c0 -5 9 -28 20 -50 10 -22 16 -29 13 -15 -7 28 -33 80 -33
65z"/>
<path d="M2311 5004 c0 -11 3 -14 6 -6 3 7 2 16 -1 19 -3 4 -6 -2 -5 -13z"/>
<path d="M1322 4985 c0 -16 2 -22 5 -12 2 9 2 23 0 30 -3 6 -5 -1 -5 -18z"/>
<path d="M1502 4862 c17 -53 32 -103 34 -111 3 -8 7 -11 10 -8 7 7 -54 205
-66 212 -4 3 6 -39 22 -93z"/>
<path d="M1550 4729 c0 -3 24 -57 54 -120 53 -112 106 -260 124 -349 8 -38 10
-40 11 -14 2 49 -35 178 -79 277 -37 86 -109 220 -110 206z"/>
<path d="M826 4520 c9 -36 69 -162 88 -185 9 -11 -3 21 -27 70 -24 50 -49 101
-55 115 l-12 25 6 -25z"/>
<path d="M4061 3691 c-1 -35 68 -218 122 -326 34 -69 123 -213 145 -235 19
-20 13 -9 -47 85 -77 120 -163 310 -201 445 -16 54 -19 59 -19 31z"/>
<path d="M2960 3563 c0 -17 5 -35 10 -38 6 -4 8 -10 5 -15 -12 -19 80 -324
101 -339 5 -3 43 -60 84 -126 41 -66 134 -209 207 -318 73 -109 133 -204 133
-212 0 -8 5 -15 10 -15 27 0 8 33 -206 346 -94 139 -203 313 -238 382 -25 49
-81 230 -74 237 2 2 21 -37 42 -87 56 -133 199 -377 220 -378 5 0 2 8 -6 18
-26 29 -134 214 -168 287 -18 39 -52 120 -76 180 -33 84 -43 102 -44 78z"/>
<path d="M3241 3443 c0 -11 75 -124 176 -268 78 -111 117 -154 130 -141 8 7
-87 155 -162 251 -34 44 -74 99 -90 123 -24 36 -56 57 -54 35z"/>
<path d="M2550 3292 c0 -13 199 -187 206 -180 2 3 -24 29 -58 59 -34 30 -82
71 -105 93 -24 21 -43 34 -43 28z"/>
<path d="M4540 3212 c6 -13 14 -21 18 -18 3 4 -2 14 -12 24 -18 16 -18 16 -6
-6z"/>
<path d="M4941 3200 c0 -8 7 -44 14 -80 l15 -65 -4 62 c-2 33 -9 69 -15 80 -8
13 -10 14 -10 3z"/>
<path d="M4564 3178 c-4 -7 -3 -10 1 -5 5 4 27 -10 49 -30 l41 -38 -40 43
c-44 48 -41 46 -51 30z"/>
<path d="M4160 3155 c0 -5 5 -17 10 -25 5 -8 10 -10 10 -5 0 6 -5 17 -10 25
-5 8 -10 11 -10 5z"/>
<path d="M4180 3105 c0 -5 5 -17 10 -25 5 -8 10 -10 10 -5 0 6 -5 17 -10 25
-5 8 -10 11 -10 5z"/>
<path d="M2770 3096 c0 -2 8 -10 18 -17 15 -13 16 -12 3 4 -13 16 -21 21 -21
13z"/>
<path d="M3010 3095 c0 -5 5 -17 10 -25 5 -8 10 -10 10 -5 0 6 -5 17 -10 25
-5 8 -10 11 -10 5z"/>
<path d="M4254 3084 c3 -9 6 -23 7 -32 0 -11 2 -12 6 -4 3 7 26 -19 54 -60 75
-111 166 -224 249 -308 80 -81 75 -75 -40 60 -73 86 -220 282 -220 294 0 4
-10 20 -22 36 -23 32 -44 40 -34 14z"/>
<path d="M3106 3060 c8 -34 60 -153 91 -209 58 -104 148 -221 218 -282 55 -48
87 -68 46 -30 -139 134 -235 277 -349 521 l-12 25 6 -25z"/>
<path d="M4201 3055 c-1 -19 108 -234 155 -307 25 -40 71 -101 101 -135 54
-62 165 -153 186 -153 7 0 -11 15 -38 34 -132 89 -246 240 -355 468 -27 57
-49 99 -49 93z"/>
<path d="M4706 3027 c3 -10 9 -15 12 -12 3 3 0 11 -7 18 -10 9 -11 8 -5 -6z"/>
<path d="M3040 3027 c0 -16 85 -176 128 -242 80 -120 259 -292 360 -344 39
-21 24 -5 -40 40 -151 105 -284 258 -387 444 -34 60 -61 106 -61 102z"/>
<path d="M4696 2983 c53 -80 200 -372 261 -518 42 -101 94 -265 114 -360 18
-87 19 -88 13 -25 -11 117 -21 195 -23 172 -2 -34 -18 -18 -26 25 -15 83 -129
343 -233 535 -29 54 -50 103 -46 109 5 8 3 9 -6 4 -10 -6 -12 -4 -7 9 4 10 3
15 -3 11 -6 -3 -10 0 -10 7 -1 15 -34 58 -45 58 -4 0 1 -12 11 -27z"/>
<path d="M4730 3002 c0 -6 12 -24 26 -39 l26 -28 -23 35 c-29 46 -29 45 -29
32z"/>
<path d="M7316 2985 c12 -48 42 -131 43 -117 1 14 -38 134 -46 142 -2 3 -1 -9
3 -25z"/>
<path d="M3610 2967 c0 -2 9 -21 19 -43 35 -72 111 -255 111 -266 0 -6 3 -9 6
-5 3 3 -6 39 -22 79 -45 120 -114 261 -114 235z"/>
<path d="M4962 2934 c-1 -11 -13 -58 -27 -105 -14 -46 -23 -90 -19 -99 8 -21
55 158 51 195 -2 17 -5 21 -5 9z"/>
<path d="M4650 2926 c0 -2 8 -10 18 -17 15 -13 16 -12 3 4 -13 16 -21 21 -21
13z"/>
<path d="M4800 2901 c5 -11 15 -23 21 -27 6 -3 3 5 -6 20 -20 30 -30 35 -15 7z"/>
<path d="M4700 2860 c12 -16 24 -30 26 -30 3 0 -4 14 -16 30 -12 17 -24 30
-26 30 -3 0 4 -13 16 -30z"/>
<path d="M4785 2880 c14 -24 156 -234 163 -240 3 -3 -5 13 -18 35 -45 76 -177
263 -145 205z"/>
<path d="M4841 2843 c7 -12 15 -20 18 -17 3 2 -3 12 -13 22 -17 16 -18 16 -5
-5z"/>
<path d="M6430 2819 c0 -11 4 -18 10 -14 5 3 7 12 3 20 -7 21 -13 19 -13 -6z"/>
<path d="M3430 2813 c0 -18 213 -313 226 -313 4 0 -66 109 -140 217 -55 79
-86 114 -86 96z"/>
<path d="M4780 2746 c91 -150 193 -380 223 -506 21 -88 28 -230 16 -311 -6
-42 -24 -92 -45 -133 -20 -36 -37 -66 -39 -66 -2 0 3 21 11 47 18 59 17 240
-2 308 -7 28 -11 37 -9 20 25 -169 14 -308 -32 -398 -13 -27 -22 -51 -20 -53
8 -9 85 96 104 141 10 25 23 43 30 41 15 -6 27 157 19 274 -6 94 -21 177 -35
195 -5 5 -18 35 -29 66 -52 140 -193 416 -223 435 -6 3 8 -24 31 -60z"/>
<path d="M3651 2785 c1 -19 18 -51 18 -35 0 8 -4 22 -9 30 -5 8 -9 11 -9 5z"/>
<path d="M4410 2741 c5 -11 15 -23 21 -27 6 -3 3 5 -6 20 -20 30 -30 35 -15 7z"/>
<path d="M4457 2671 c22 -40 119 -143 152 -160 13 -7 -10 20 -51 60 -41 41
-85 88 -97 104 l-22 30 18 -34z"/>
<path d="M6333 2664 c-56 -33 -55 -39 2 -12 25 12 45 26 45 30 0 11 0 11 -47
-18z"/>
<path d="M5180 2649 c-152 -46 -180 -58 -180 -79 0 -28 18 -34 22 -8 3 20 20
29 123 63 183 61 204 75 35 24z"/>
<path d="M3691 2634 c0 -11 3 -14 6 -6 3 7 2 16 -1 19 -3 4 -6 -2 -5 -13z"/>
<path d="M3701 2594 c0 -11 3 -14 6 -6 3 7 2 16 -1 19 -3 4 -6 -2 -5 -13z"/>
<path d="M4670 2565 c13 -14 25 -25 27 -25 9 0 -33 49 -41 50 -5 0 1 -11 14
-25z"/>
<path d="M3712 2550 c0 -14 2 -19 5 -12 2 6 2 18 0 25 -3 6 -5 1 -5 -13z"/>
<path d="M4990 2535 c0 -5 5 -17 10 -25 5 -8 10 -10 10 -5 0 6 -5 17 -10 25
-5 8 -10 11 -10 5z"/>
<path d="M4703 2517 c-4 -7 -17 -19 -28 -25 -15 -9 -16 -11 -4 -12 18 0 55 37
47 46 -4 3 -10 -1 -15 -9z"/>
<path d="M3724 2483 c2 -23 0 -43 -4 -45 -4 -2 -2 -9 6 -16 17 -15 18 1 4 63
l-9 40 3 -42z"/>
<path d="M5021 2444 c0 -11 3 -14 6 -6 3 7 2 16 -1 19 -3 4 -6 -2 -5 -13z"/>
<path d="M3816 2415 c3 -22 8 -42 10 -44 4 -4 84 49 84 56 0 3 -16 -5 -36 -16
-20 -12 -38 -21 -39 -19 -1 2 -7 17 -14 33 -11 29 -11 28 -5 -10z"/>
<path d="M2358 2423 c7 -3 16 -2 19 1 4 3 -2 6 -13 5 -11 0 -14 -3 -6 -6z"/>
<path d="M3560 2411 c0 -11 4 -22 10 -26 16 -10 98 -188 132 -287 23 -67 32
-111 32 -157 0 -50 2 -59 9 -40 5 13 10 110 12 214 2 157 1 167 -4 60 -4 -88
-9 -124 -15 -110 -5 11 -20 49 -34 85 -28 73 -129 280 -137 280 -3 0 -5 -9 -5
-19z"/>
<path d="M4540 2375 c-24 -25 -42 -45 -39 -45 3 0 25 20 49 45 24 25 42 45 39
45 -3 0 -25 -20 -49 -45z"/>
<path d="M4795 2286 c0 -72 3 -117 6 -101 9 42 10 208 1 221 -4 7 -7 -47 -7
-120z"/>
<path d="M5031 2394 c0 -11 3 -14 6 -6 3 7 2 16 -1 19 -3 4 -6 -2 -5 -13z"/>
<path d="M5075 2370 c19 -96 31 -136 46 -151 17 -17 62 -142 85 -237 17 -75
39 -340 31 -374 -9 -36 -154 -161 -294 -255 -62 -41 -115 -79 -119 -84 -3 -5
0 -24 6 -43 7 -24 19 -36 43 -44 40 -13 295 -109 322 -121 21 -9 21 -9 4 -187
-9 -99 -22 -208 -28 -244 -21 -118 -34 -175 -43 -184 -4 -6 -8 -21 -8 -35 0
-15 -9 -45 -20 -69 -10 -23 -17 -42 -15 -42 2 0 23 25 46 55 48 63 61 111 49
174 -5 29 -4 72 4 116 l12 70 33 -85 c18 -47 38 -115 44 -152 9 -60 8 -75 -13
-145 -18 -62 -23 -97 -21 -170 2 -74 -1 -98 -15 -123 -18 -29 -41 -42 -31 -17
2 7 1 30 -3 52 -7 39 -8 38 -9 -17 l-1 -58 41 0 42 0 -5 125 c-5 114 -4 131
18 193 13 37 24 88 24 113 l0 46 78 -18 c113 -28 285 -48 456 -55 129 -6 165
-11 246 -36 191 -61 457 -177 680 -298 72 -39 136 -70 143 -67 6 2 -11 15 -38
29 -28 14 -86 45 -130 69 -104 58 -297 152 -399 194 -234 97 -566 188 -566
156 0 -6 15 -11 33 -12 17 -1 43 -5 57 -9 42 -13 -58 -11 -220 5 -153 15 -227
27 -300 49 -45 13 -45 14 -71 92 -14 43 -34 94 -43 113 -22 41 -46 47 226 -53
242 -89 368 -126 806 -236 456 -115 640 -179 911 -317 91 -46 172 -82 179 -81
21 4 -236 135 -388 198 -198 83 -360 132 -753 229 -344 85 -552 149 -827 251
-155 58 -170 69 -170 128 0 26 5 85 10 132 13 114 40 590 40 716 0 114 5 123
75 144 66 19 249 7 475 -33 409 -71 717 -100 1075 -101 231 -1 482 10 471 21
-3 3 -105 0 -228 -7 -224 -12 -380 -8 -693 21 -214 19 -789 100 -801 112 -3 3
25 8 63 11 360 32 429 38 432 42 8 7 -72 4 -244 -10 -93 -8 -242 -18 -330 -21
-88 -4 -178 -11 -200 -16 -22 -6 -46 -11 -53 -12 -7 -2 -18 -9 -24 -15 -20
-20 -28 -14 -28 24 0 20 -4 53 -9 73 -5 20 -17 70 -27 111 -9 41 -35 118 -57
170 -22 52 -50 124 -63 160 -14 36 -22 54 -19 40z m94 -1923 c-5 -18 -16 -42
-25 -52 -15 -19 -15 -19 -9 5 3 14 11 49 18 78 10 47 12 50 18 28 4 -15 3 -41
-2 -59z"/>
<path d="M3742 2350 c0 -19 2 -27 5 -17 2 9 2 25 0 35 -3 9 -5 1 -5 -18z"/>
<path d="M5042 2355 c0 -11 4 -33 8 -50 7 -27 8 -27 8 -5 0 14 -4 36 -8 50 -6
20 -8 21 -8 5z"/>
<path d="M2245 2331 c-84 -37 -389 -251 -426 -298 -12 -16 -12 -17 1 -7 8 6
56 42 105 79 112 85 244 172 310 205 62 31 59 29 54 34 -2 3 -22 -3 -44 -13z"/>
<path d="M6500 2321 c0 -15 144 -167 174 -183 11 -6 -12 20 -51 58 -38 38 -82
85 -96 104 -15 19 -27 29 -27 21z"/>
<path d="M3840 2291 c0 -17 4 -32 8 -35 4 -2 6 11 4 30 -5 42 -12 45 -12 5z"/>
<path d="M4860 2280 c-1 -97 -46 -206 -111 -265 l-33 -30 19 30 c29 46 43 77
50 110 3 17 -4 6 -17 -24 -12 -30 -38 -72 -58 -93 -38 -39 -30 -49 18 -24 65
34 126 136 138 233 3 29 10 50 15 47 13 -8 10 7 -6 36 -14 24 -14 24 -15 -20z"/>
<path d="M4439 2273 l-24 -28 28 24 c25 23 32 31 24 31 -2 0 -14 -12 -28 -27z"/>
<path d="M5810 2229 c-52 -33 -99 -66 -105 -72 -5 -6 4 -2 20 8 58 37 180 105
187 105 5 0 8 5 8 10 0 18 -14 11 -110 -51z"/>
<path d="M3930 2235 c14 -17 13 -18 -5 -11 -24 9 -19 4 26 -27 64 -43 212 -83
251 -68 19 8 14 10 -27 11 -58 1 -140 32 -210 80 -28 19 -43 26 -35 15z m35
-25 c3 -6 -1 -7 -9 -4 -18 7 -21 14 -7 14 6 0 13 -4 16 -10z"/>
<path d="M3854 2135 c0 -60 1 -84 3 -52 2 32 2 81 0 110 -2 29 -3 3 -3 -58z"/>
<path d="M5113 2155 c0 -33 2 -45 4 -27 2 18 2 45 0 60 -2 15 -4 0 -4 -33z"/>
<path d="M6882 2180 c0 -19 2 -27 5 -17 2 9 2 25 0 35 -3 9 -5 1 -5 -18z"/>
<path d="M4921 2154 c0 -11 3 -14 6 -6 3 7 2 16 -1 19 -3 4 -6 -2 -5 -13z"/>
<path d="M5638 2115 c-27 -20 -48 -38 -48 -41 0 -7 87 54 95 66 9 15 4 12 -47
-25z"/>
<path d="M6673 2083 c15 -2 37 -2 50 0 12 2 0 4 -28 4 -27 0 -38 -2 -22 -4z"/>
<path d="M5088 1865 c-4 -82 -9 -161 -12 -175 l-7 -25 12 25 c12 25 25 268 17
305 -2 11 -7 -47 -10 -130z"/>
<path d="M6148 1873 c6 -2 18 -2 25 0 6 3 1 5 -13 5 -14 0 -19 -2 -12 -5z"/>
<path d="M3721 1854 c0 -11 3 -14 6 -6 3 7 2 16 -1 19 -3 4 -6 -2 -5 -13z"/>
<path d="M3773 1837 c-10 -22 -10 -25 2 -20 11 4 15 -3 16 -23 1 -16 3 -22 6
-12 2 9 0 31 -4 48 l-9 33 -11 -26z"/>
<path d="M5005 1780 c-4 -23 -5 -43 -2 -46 2 -3 7 14 11 37 4 23 5 44 2 46 -2
2 -7 -14 -11 -37z"/>
<path d="M2382 1793 c-6 -10 -13 -34 -17 -54 -6 -31 -2 -41 38 -89 143 -178
247 -312 247 -320 0 -6 3 -10 8 -10 4 0 68 -75 142 -167 166 -205 164 -203
198 -204 49 -2 64 1 497 115 237 62 433 112 436 110 3 -2 -12 -68 -33 -146
-118 -427 -276 -1024 -272 -1027 2 -2 6 -2 8 0 2 2 72 260 156 574 83 314 160
599 170 634 28 90 27 95 -23 108 -24 7 -69 22 -101 33 -55 21 -57 23 -52 53
l6 32 -11 -27 c-6 -16 -15 -28 -21 -28 -11 0 -727 231 -1098 354 -240 79 -265
84 -278 59z"/>
<path d="M3735 1774 c-9 -15 -12 -23 -6 -20 11 7 35 46 28 46 -3 0 -12 -12
-22 -26z"/>
<path d="M3804 1640 c0 -69 1 -97 3 -62 2 34 2 90 0 125 -2 34 -3 6 -3 -63z"/>
<path d="M1854 1688 c-29 -31 -64 -82 -64 -92 0 -2 27 23 60 56 33 33 60 61
60 64 0 14 -31 -1 -56 -28z"/>
<path d="M4985 1688 c-4 -18 -18 -57 -31 -87 -14 -30 -23 -56 -21 -58 2 -2 15
23 29 54 26 59 44 123 35 123 -3 0 -9 -15 -12 -32z"/>
<path d="M3656 1681 c-4 -5 -2 -12 3 -15 5 -4 12 -2 15 3 4 5 2 12 -3 15 -5 4
-12 2 -15 -3z"/>
<path d="M3625 1629 c-4 -6 -5 -12 -2 -15 2 -3 7 2 10 11 7 17 1 20 -8 4z"/>
<path d="M5046 1615 c-9 -26 -7 -32 5 -12 6 10 9 21 6 23 -2 3 -7 -2 -11 -11z"/>
<path d="M307 1518 c-9 -29 -15 -54 -13 -56 2 -2 12 20 21 48 9 28 15 53 13
55 -2 3 -12 -19 -21 -47z"/>
<path d="M5010 1540 c-6 -11 -8 -20 -6 -20 3 0 10 9 16 20 6 11 8 20 6 20 -3
0 -10 -9 -16 -20z"/>
<path d="M3862 1493 c-6 -20 -7 -32 -2 -27 10 10 25 64 18 64 -3 0 -10 -16
-16 -37z"/>
<path d="M4895 1483 c-15 -26 -35 -57 -44 -67 -10 -12 -11 -16 -3 -12 17 10
85 116 79 122 -2 3 -17 -17 -32 -43z"/>
<path d="M1704 1483 c-15 -20 -23 -33 -16 -29 13 8 56 66 49 66 -3 0 -17 -17
-33 -37z"/>
<path d="M3792 1465 c0 -16 2 -22 5 -12 2 9 2 23 0 30 -3 6 -5 -1 -5 -18z"/>
<path d="M276 1435 c-9 -26 -7 -32 5 -12 6 10 9 21 6 23 -2 3 -7 -2 -11 -11z"/>
<path d="M3821 1419 c-13 -17 -21 -33 -18 -35 3 -3 15 9 27 26 29 41 20 49 -9
9z"/>
<path d="M1659 1423 c-13 -16 -12 -17 4 -4 16 13 21 21 13 21 -2 0 -10 -8 -17
-17z"/>
<path d="M251 1373 c-10 -26 -10 -27 4 -9 8 11 15 23 15 28 0 15 -7 8 -19 -19z"/>
<path d="M1182 1326 c-13 -35 -31 -80 -42 -100 -11 -23 -13 -33 -5 -26 15 13
77 168 73 182 -2 4 -13 -21 -26 -56z"/>
<path d="M4795 1358 c-20 -20 -23 -27 -10 -20 23 12 63 53 49 51 -5 -1 -22
-15 -39 -31z"/>
<path d="M1880 1337 c14 -12 36 -33 50 -47 14 -15 18 -17 10 -5 -26 37 -64 75
-74 75 -6 0 0 -10 14 -23z"/>
<path d="M2644 1266 c-3 -21 -4 -39 -1 -42 2 -3 8 11 11 32 4 20 5 38 2 41 -2
3 -8 -11 -12 -31z"/>
<path d="M1102 1250 c0 -14 2 -19 5 -12 2 6 2 18 0 25 -3 6 -5 1 -5 -13z"/>
<path d="M153 1218 c-31 -35 -40 -56 -14 -33 21 18 46 55 38 55 -2 0 -13 -10
-24 -22z"/>
<path d="M2165 1199 c-4 -6 -5 -12 -2 -15 2 -3 7 2 10 11 7 17 1 20 -8 4z"/>
<path d="M2601 1104 c0 -11 3 -14 6 -6 3 7 2 16 -1 19 -3 4 -6 -2 -5 -13z"/>
<path d="M7005 1089 c-101 -10 -165 -24 -145 -32 17 -7 403 -107 417 -108 21
-2 -36 -18 -66 -18 -46 -1 -32 -14 49 -44 36 -13 73 -28 83 -32 9 -4 17 -3 17
1 0 10 -102 54 -128 55 -35 1 22 18 68 19 l45 2 -42 19 c-23 11 -113 37 -200
59 -87 23 -165 44 -173 47 -39 17 291 29 383 14 34 -6 47 -5 47 4 0 22 -199
30 -355 14z"/>
<path d="M2586 1054 c-4 -14 -5 -28 -3 -31 3 -2 8 8 11 23 4 14 5 28 3 31 -3
2 -8 -8 -11 -23z"/>
<path d="M2537 884 c-20 -71 -51 -176 -68 -234 -37 -125 -44 -155 -28 -120 17
39 140 463 136 473 -1 5 -19 -48 -40 -119z"/>
<path d="M5015 720 c20 -64 98 -270 101 -267 5 5 -94 278 -103 287 -3 3 -2 -6
2 -20z"/>
<path d="M2241 210 c6 -16 15 -30 19 -30 5 0 4 14 -1 30 -6 17 -15 30 -19 30
-5 0 -4 -13 1 -30z"/>
<path d="M2342 139 c-1 -15 -15 -52 -31 -83 -17 -31 -26 -56 -21 -56 18 0 61
100 57 133 -3 28 -4 29 -5 6z"/>
</g>
</svg>
