<svg xmlns="http://www.w3.org/2000/svg" width="256" height="256" viewBox="0 0 256 256" version="1.1"><path d="M 82.881 1.503 C 76.952 4.726, 77 4.172, 77 68.901 L 77 128 89.500 128 L 102 128 101.976 70.750 C 101.963 39.263, 101.537 11.700, 101.029 9.500 C 99.710 3.781, 95.181 -0.011, 89.734 0.040 C 87.405 0.062, 84.322 0.720, 82.881 1.503 M 162.071 87.752 C 160.185 88.713, 157.710 90.770, 156.571 92.321 C 154.582 95.031, 154.498 96.401, 154.445 126.821 C 154.415 144.245, 154.539 151.637, 154.721 143.250 L 155.052 128 167.026 128 L 179 128 178.996 111.750 C 178.992 93.324, 178.017 90.159, 171.510 87.440 C 167.110 85.601, 166.231 85.630, 162.071 87.752 M 6.198 109.619 C 1.851 111.832, 0 115.664, 0 122.450 L 0 128 12.116 128 L 24.233 128 23.817 121.470 C 23.457 115.812, 22.995 114.533, 20.357 111.896 C 16.561 108.099, 10.955 107.198, 6.198 109.619 M 239.500 108.954 C 234.885 110.863, 232.609 114.773, 232.179 121.532 L 231.767 128 243.884 128 L 256 128 256 122.450 C 256 119.398, 255.345 115.634, 254.544 114.085 C 252.104 109.367, 244.649 106.824, 239.500 108.954" stroke="none" fill="#0cccfc" fill-rule="evenodd"/><path d="M 122.449 44.551 C 115.667 47.898, 116 43.598, 116 127.954 C 116 211.518, 115.768 208.278, 121.967 211.483 C 125.706 213.416, 130.294 213.416, 134.033 211.483 C 140.232 208.278, 140 211.518, 140 127.954 C 140 43.388, 140.351 47.818, 133.393 44.516 C 129.390 42.617, 126.349 42.626, 122.449 44.551 M 199.190 45.026 C 192.807 48.917, 193 46.303, 193 128.820 L 193 203.704 195.280 207.088 C 199.370 213.157, 205.765 214.660, 211.810 210.974 C 218.189 207.085, 218 209.616, 218 128 C 218 46.384, 218.189 48.915, 211.810 45.026 C 209.990 43.916, 207.150 43.007, 205.500 43.007 C 203.850 43.007, 201.010 43.916, 199.190 45.026 M 43.514 67.168 C 38.001 71.504, 38 71.512, 38 128 C 38 184.488, 38.001 184.496, 43.514 188.832 C 46.893 191.490, 53.009 191.699, 57.080 189.294 C 63.148 185.709, 63.077 186.488, 62.775 126.469 L 62.500 71.845 58.765 68.423 C 55.701 65.615, 54.242 65, 50.650 65 C 47.671 65, 45.388 65.694, 43.514 67.168 M 0 133.550 C 0 140.432, 1.892 144.246, 6.357 146.365 C 10.622 148.389, 13.272 148.428, 16.961 146.520 C 22.053 143.887, 24 140.386, 24 133.865 L 24 128 12 128 L 0 128 0 133.550 M 77 187.032 C 77 251.762, 76.967 251.380, 82.872 254.434 C 90.274 258.261, 98.842 254.829, 100.965 247.186 C 101.609 244.869, 101.991 222.056, 101.994 185.750 L 102 128 89.500 128 L 77 128 77 187.032 M 155 144.596 C 155 162.431, 155.712 165.438, 160.551 168.027 C 163.911 169.825, 170.407 169.618, 173.464 167.616 C 178.099 164.578, 179 160.660, 179 143.532 L 179 128 167 128 L 155 128 155 144.596 M 232.183 134.530 C 232.542 140.164, 233.010 141.472, 235.599 144.060 C 239.462 147.924, 244.502 148.805, 249.412 146.475 C 254.103 144.249, 256 140.526, 256 133.550 L 256 128 243.884 128 L 231.767 128 232.183 134.530" stroke="none" fill="#24a3f4" fill-rule="evenodd"/></svg>